<svg width="504" height="332" viewBox="0 0 504 332" fill="none" xmlns="http://www.w3.org/2000/svg">
<g filter="url(#filter0_d_4_7556)">
<rect x="36" y="12" width="432" height="260" rx="12" fill="white"/>
<path d="M57.792 37.2H62.776C62.9347 37.2 63.07 37.2513 63.182 37.354C63.294 37.4567 63.35 37.5873 63.35 37.746C63.35 37.9047 63.294 38.0353 63.182 38.138C63.07 38.2313 62.9347 38.278 62.776 38.278H58.268L58.394 38.04V41.582L58.254 41.428H62.146C62.3047 41.428 62.44 41.4793 62.552 41.582C62.664 41.6847 62.72 41.8153 62.72 41.974C62.72 42.1327 62.664 42.2633 62.552 42.366C62.44 42.4593 62.3047 42.506 62.146 42.506H58.296L58.394 42.38V46.006L58.31 45.908H62.776C62.9347 45.908 63.07 45.964 63.182 46.076C63.294 46.188 63.35 46.314 63.35 46.454C63.35 46.6127 63.294 46.7433 63.182 46.846C63.07 46.9487 62.9347 47 62.776 47H57.792C57.6333 47 57.498 46.944 57.386 46.832C57.2833 46.72 57.232 46.5847 57.232 46.426V37.76C57.232 37.6013 57.2833 37.4707 57.386 37.368C57.498 37.256 57.6333 37.2 57.792 37.2ZM64.9504 39.678C65.1277 39.678 65.277 39.7573 65.3984 39.916L70.2704 46.132C70.345 46.2347 70.3824 46.3467 70.3824 46.468C70.3824 46.6267 70.3264 46.762 70.2144 46.874C70.1024 46.986 69.9717 47.042 69.8224 47.042C69.645 47.042 69.491 46.958 69.3604 46.79L64.4884 40.588C64.4137 40.4853 64.3764 40.3733 64.3764 40.252C64.3764 40.084 64.4324 39.9487 64.5444 39.846C64.6657 39.734 64.801 39.678 64.9504 39.678ZM64.9504 47.028C64.829 47.028 64.7077 46.9813 64.5864 46.888C64.465 46.7947 64.4044 46.6733 64.4044 46.524C64.4044 46.4027 64.451 46.286 64.5444 46.174L66.8404 43.276L67.4284 44.2L65.3984 46.804C65.2864 46.9533 65.137 47.028 64.9504 47.028ZM69.8224 39.678C69.981 39.678 70.107 39.7293 70.2004 39.832C70.303 39.9347 70.3544 40.0513 70.3544 40.182C70.3544 40.238 70.3404 40.2987 70.3124 40.364C70.2937 40.4293 70.261 40.49 70.2144 40.546L67.9324 43.472L67.3444 42.618L69.3604 39.93C69.491 39.762 69.645 39.678 69.8224 39.678ZM75.3853 39.65C76.02 39.65 76.5893 39.8087 77.0933 40.126C77.5973 40.4433 77.994 40.882 78.2833 41.442C78.582 42.002 78.7313 42.646 78.7313 43.374C78.7313 44.0927 78.582 44.7367 78.2833 45.306C77.994 45.866 77.5973 46.3093 77.0933 46.636C76.5986 46.9533 76.0386 47.112 75.4133 47.112C75.068 47.112 74.7413 47.0607 74.4333 46.958C74.1346 46.846 73.8593 46.706 73.6073 46.538C73.3646 46.3607 73.1593 46.1647 72.9913 45.95C72.8233 45.726 72.702 45.5067 72.6273 45.292L72.9353 45.096V49.226C72.9353 49.3847 72.884 49.52 72.7813 49.632C72.6786 49.744 72.5433 49.8 72.3753 49.8C72.2166 49.8 72.0813 49.744 71.9693 49.632C71.8666 49.5293 71.8153 49.394 71.8153 49.226V40.28C71.8153 40.1213 71.8666 39.9907 71.9693 39.888C72.0813 39.776 72.2166 39.72 72.3753 39.72C72.5433 39.72 72.6786 39.776 72.7813 39.888C72.884 39.9907 72.9353 40.1213 72.9353 40.28V41.526L72.7253 41.414C72.7906 41.1807 72.9026 40.9567 73.0613 40.742C73.2293 40.5273 73.43 40.3407 73.6633 40.182C73.906 40.014 74.172 39.8833 74.4613 39.79C74.76 39.6967 75.068 39.65 75.3853 39.65ZM75.2593 40.686C74.7926 40.686 74.3773 40.8027 74.0133 41.036C73.6586 41.2693 73.3786 41.5867 73.1733 41.988C72.9773 42.3893 72.8793 42.8513 72.8793 43.374C72.8793 43.8873 72.9773 44.3493 73.1733 44.76C73.3786 45.1707 73.6586 45.4927 74.0133 45.726C74.3773 45.9593 74.7926 46.076 75.2593 46.076C75.726 46.076 76.1366 45.9593 76.4913 45.726C76.846 45.4927 77.126 45.1707 77.3313 44.76C77.5366 44.3493 77.6393 43.8873 77.6393 43.374C77.6393 42.8513 77.5366 42.3893 77.3313 41.988C77.126 41.5867 76.846 41.2693 76.4913 41.036C76.1366 40.8027 75.726 40.686 75.2593 40.686ZM83.7609 47.14C83.0142 47.14 82.3609 46.9813 81.8009 46.664C81.2409 46.3467 80.8022 45.9127 80.4849 45.362C80.1769 44.802 80.0229 44.158 80.0229 43.43C80.0229 42.618 80.1816 41.9273 80.4989 41.358C80.8256 40.7793 81.2456 40.3407 81.7589 40.042C82.2816 39.734 82.8322 39.58 83.4109 39.58C83.8402 39.58 84.2556 39.6593 84.6569 39.818C85.0582 39.9767 85.4129 40.21 85.7209 40.518C86.0289 40.8167 86.2762 41.1807 86.4629 41.61C86.6496 42.03 86.7476 42.5013 86.7569 43.024C86.7569 43.1733 86.7009 43.2993 86.5889 43.402C86.4769 43.5047 86.3462 43.556 86.1969 43.556H80.6669L80.4149 42.59H85.8049L85.5809 42.786V42.478C85.5436 42.0953 85.4129 41.7687 85.1889 41.498C84.9742 41.218 84.7082 41.0033 84.3909 40.854C84.0829 40.7047 83.7562 40.63 83.4109 40.63C83.1309 40.63 82.8509 40.6813 82.5709 40.784C82.3002 40.8773 82.0529 41.036 81.8289 41.26C81.6142 41.4747 81.4369 41.7547 81.2969 42.1C81.1662 42.4453 81.1009 42.8607 81.1009 43.346C81.1009 43.8873 81.2082 44.3633 81.4229 44.774C81.6469 45.1847 81.9549 45.5113 82.3469 45.754C82.7389 45.9873 83.1962 46.104 83.7189 46.104C84.0456 46.104 84.3302 46.062 84.5729 45.978C84.8156 45.894 85.0256 45.7913 85.2029 45.67C85.3802 45.5393 85.5296 45.4087 85.6509 45.278C85.7722 45.194 85.8889 45.152 86.0009 45.152C86.1409 45.152 86.2529 45.1987 86.3369 45.292C86.4302 45.3853 86.4769 45.4973 86.4769 45.628C86.4769 45.7867 86.4022 45.9267 86.2529 46.048C85.9916 46.3373 85.6369 46.594 85.1889 46.818C84.7409 47.0327 84.2649 47.14 83.7609 47.14ZM91.6603 39.58C92.1363 39.58 92.5656 39.6313 92.9483 39.734C93.331 39.8367 93.6343 39.9767 93.8583 40.154C94.0823 40.3313 94.1943 40.532 94.1943 40.756C94.1943 40.8773 94.1523 40.994 94.0683 41.106C93.9843 41.218 93.8723 41.274 93.7323 41.274C93.6016 41.274 93.4943 41.2507 93.4103 41.204C93.3356 41.1573 93.261 41.0967 93.1863 41.022C93.121 40.9473 93.0276 40.882 92.9063 40.826C92.7943 40.7607 92.631 40.7093 92.4163 40.672C92.2016 40.6347 91.987 40.616 91.7723 40.616C91.259 40.616 90.8063 40.7373 90.4143 40.98C90.0316 41.2227 89.7283 41.5493 89.5043 41.96C89.2803 42.3707 89.1683 42.8373 89.1683 43.36C89.1683 43.8827 89.2756 44.3493 89.4903 44.76C89.705 45.1707 90.0036 45.4973 90.3863 45.74C90.769 45.9827 91.2123 46.104 91.7163 46.104C92.043 46.104 92.3043 46.076 92.5003 46.02C92.6963 45.964 92.8596 45.8987 92.9903 45.824C93.1583 45.7307 93.2843 45.6373 93.3683 45.544C93.4616 45.4507 93.583 45.404 93.7323 45.404C93.891 45.404 94.0123 45.4553 94.0963 45.558C94.1896 45.6607 94.2363 45.7867 94.2363 45.936C94.2363 46.104 94.1196 46.2813 93.8863 46.468C93.653 46.6547 93.3356 46.8133 92.9343 46.944C92.5423 47.0747 92.0943 47.14 91.5903 47.14C90.881 47.14 90.2603 46.9767 89.7283 46.65C89.1963 46.314 88.781 45.8613 88.4823 45.292C88.193 44.7133 88.0483 44.0693 88.0483 43.36C88.0483 42.6507 88.1976 42.0113 88.4963 41.442C88.8043 40.8727 89.229 40.42 89.7703 40.084C90.3116 39.748 90.9416 39.58 91.6603 39.58ZM95.4201 39.804H98.7101C98.8594 39.804 98.9807 39.8553 99.0741 39.958C99.1767 40.0607 99.2281 40.182 99.2281 40.322C99.2281 40.4713 99.1767 40.5973 99.0741 40.7C98.9807 40.7933 98.8594 40.84 98.7101 40.84H95.4201C95.2801 40.84 95.1587 40.7887 95.0561 40.686C94.9534 40.5833 94.9021 40.4573 94.9021 40.308C94.9021 40.168 94.9534 40.0513 95.0561 39.958C95.1587 39.8553 95.2801 39.804 95.4201 39.804ZM96.8901 37.9C97.0487 37.9 97.1794 37.956 97.2821 38.068C97.3847 38.1707 97.4361 38.3013 97.4361 38.46V45.222C97.4361 45.446 97.4687 45.614 97.5341 45.726C97.5994 45.838 97.6834 45.9173 97.7861 45.964C97.8981 46.0013 98.0054 46.02 98.1081 46.02C98.2014 46.02 98.2807 46.006 98.3461 45.978C98.4207 45.9407 98.5047 45.922 98.5981 45.922C98.6914 45.922 98.7754 45.9687 98.8501 46.062C98.9341 46.146 98.9761 46.258 98.9761 46.398C98.9761 46.566 98.8781 46.7107 98.6821 46.832C98.4861 46.944 98.2667 47 98.0241 47C97.8934 47 97.7301 46.9907 97.5341 46.972C97.3474 46.9533 97.1607 46.8927 96.9741 46.79C96.7874 46.6873 96.6287 46.5193 96.4981 46.286C96.3767 46.0433 96.3161 45.7073 96.3161 45.278V38.46C96.3161 38.3013 96.3721 38.1707 96.4841 38.068C96.5961 37.956 96.7314 37.9 96.8901 37.9ZM104.064 47.14C103.317 47.14 102.664 46.9813 102.104 46.664C101.544 46.3467 101.105 45.9127 100.788 45.362C100.48 44.802 100.326 44.158 100.326 43.43C100.326 42.618 100.484 41.9273 100.802 41.358C101.128 40.7793 101.548 40.3407 102.062 40.042C102.584 39.734 103.135 39.58 103.714 39.58C104.143 39.58 104.558 39.6593 104.96 39.818C105.361 39.9767 105.716 40.21 106.024 40.518C106.332 40.8167 106.579 41.1807 106.766 41.61C106.952 42.03 107.05 42.5013 107.06 43.024C107.06 43.1733 107.004 43.2993 106.892 43.402C106.78 43.5047 106.649 43.556 106.5 43.556H100.97L100.718 42.59H106.108L105.884 42.786V42.478C105.846 42.0953 105.716 41.7687 105.492 41.498C105.277 41.218 105.011 41.0033 104.694 40.854C104.386 40.7047 104.059 40.63 103.714 40.63C103.434 40.63 103.154 40.6813 102.874 40.784C102.603 40.8773 102.356 41.036 102.132 41.26C101.917 41.4747 101.74 41.7547 101.6 42.1C101.469 42.4453 101.404 42.8607 101.404 43.346C101.404 43.8873 101.511 44.3633 101.726 44.774C101.95 45.1847 102.258 45.5113 102.65 45.754C103.042 45.9873 103.499 46.104 104.022 46.104C104.348 46.104 104.633 46.062 104.876 45.978C105.118 45.894 105.328 45.7913 105.506 45.67C105.683 45.5393 105.832 45.4087 105.954 45.278C106.075 45.194 106.192 45.152 106.304 45.152C106.444 45.152 106.556 45.1987 106.64 45.292C106.733 45.3853 106.78 45.4973 106.78 45.628C106.78 45.7867 106.705 45.9267 106.556 46.048C106.294 46.3373 105.94 46.594 105.492 46.818C105.044 47.0327 104.568 47.14 104.064 47.14ZM114.707 36.64C114.866 36.64 114.996 36.696 115.099 36.808C115.211 36.9107 115.267 37.0413 115.267 37.2V46.426C115.267 46.5847 115.211 46.72 115.099 46.832C114.996 46.944 114.866 47 114.707 47C114.539 47 114.404 46.944 114.301 46.832C114.198 46.72 114.147 46.5847 114.147 46.426V45.096L114.413 44.998C114.413 45.222 114.343 45.46 114.203 45.712C114.063 45.9547 113.872 46.1833 113.629 46.398C113.386 46.6127 113.097 46.79 112.761 46.93C112.434 47.07 112.08 47.14 111.697 47.14C111.072 47.14 110.502 46.9767 109.989 46.65C109.485 46.3233 109.084 45.8753 108.785 45.306C108.496 44.7367 108.351 44.088 108.351 43.36C108.351 42.6227 108.496 41.9693 108.785 41.4C109.084 40.8307 109.485 40.3873 109.989 40.07C110.493 39.7433 111.053 39.58 111.669 39.58C112.061 39.58 112.43 39.6453 112.775 39.776C113.12 39.9067 113.419 40.084 113.671 40.308C113.932 40.532 114.138 40.7793 114.287 41.05C114.436 41.3207 114.511 41.5913 114.511 41.862L114.147 41.778V37.2C114.147 37.0413 114.198 36.9107 114.301 36.808C114.404 36.696 114.539 36.64 114.707 36.64ZM111.823 46.104C112.29 46.104 112.7 45.9873 113.055 45.754C113.419 45.5113 113.699 45.1847 113.895 44.774C114.1 44.354 114.203 43.8827 114.203 43.36C114.203 42.828 114.1 42.3567 113.895 41.946C113.699 41.5353 113.419 41.2133 113.055 40.98C112.7 40.7373 112.29 40.616 111.823 40.616C111.366 40.616 110.955 40.7373 110.591 40.98C110.236 41.2133 109.956 41.5353 109.751 41.946C109.546 42.3567 109.443 42.828 109.443 43.36C109.443 43.8733 109.546 44.34 109.751 44.76C109.956 45.1707 110.236 45.4973 110.591 45.74C110.955 45.9827 111.366 46.104 111.823 46.104ZM128.45 37.844C128.609 37.928 128.697 38.054 128.716 38.222C128.744 38.39 128.702 38.544 128.59 38.684C128.506 38.8053 128.399 38.8707 128.268 38.88C128.137 38.8893 128.007 38.8613 127.876 38.796C127.568 38.6093 127.237 38.4647 126.882 38.362C126.527 38.25 126.154 38.194 125.762 38.194C125.211 38.194 124.707 38.292 124.25 38.488C123.793 38.6747 123.396 38.9407 123.06 39.286C122.724 39.6313 122.463 40.042 122.276 40.518C122.089 40.994 121.996 41.5213 121.996 42.1C121.996 42.716 122.094 43.2667 122.29 43.752C122.486 44.2373 122.752 44.6527 123.088 44.998C123.433 45.334 123.83 45.5907 124.278 45.768C124.735 45.9453 125.23 46.034 125.762 46.034C126.145 46.034 126.513 45.9827 126.868 45.88C127.223 45.7773 127.559 45.628 127.876 45.432C128.007 45.3667 128.137 45.3433 128.268 45.362C128.399 45.3807 128.511 45.446 128.604 45.558C128.716 45.7073 128.758 45.866 128.73 46.034C128.702 46.1927 128.613 46.3093 128.464 46.384C128.231 46.524 127.965 46.6547 127.666 46.776C127.367 46.888 127.055 46.9767 126.728 47.042C126.411 47.1073 126.089 47.14 125.762 47.14C125.09 47.14 124.455 47.0233 123.858 46.79C123.261 46.5567 122.733 46.2207 122.276 45.782C121.819 45.3433 121.455 44.816 121.184 44.2C120.923 43.5747 120.792 42.8747 120.792 42.1C120.792 41.372 120.918 40.7047 121.17 40.098C121.422 39.4913 121.772 38.964 122.22 38.516C122.677 38.068 123.205 37.718 123.802 37.466C124.409 37.214 125.062 37.088 125.762 37.088C126.247 37.088 126.719 37.1533 127.176 37.284C127.643 37.4147 128.067 37.6013 128.45 37.844ZM130.782 47C130.623 47 130.488 46.944 130.376 46.832C130.273 46.72 130.222 46.5847 130.222 46.426V40.322C130.222 40.1633 130.273 40.0327 130.376 39.93C130.488 39.818 130.623 39.762 130.782 39.762C130.95 39.762 131.085 39.818 131.188 39.93C131.29 40.0327 131.342 40.1633 131.342 40.322V42.17L131.174 41.876C131.23 41.5867 131.328 41.3067 131.468 41.036C131.617 40.756 131.804 40.5087 132.028 40.294C132.252 40.07 132.508 39.8973 132.798 39.776C133.087 39.6453 133.404 39.58 133.75 39.58C133.955 39.58 134.142 39.6313 134.31 39.734C134.487 39.8273 134.576 39.9627 134.576 40.14C134.576 40.336 134.524 40.4807 134.422 40.574C134.319 40.6673 134.202 40.714 134.072 40.714C133.95 40.714 133.834 40.6907 133.722 40.644C133.61 40.588 133.47 40.56 133.302 40.56C133.068 40.56 132.835 40.6253 132.602 40.756C132.378 40.8773 132.168 41.0547 131.972 41.288C131.785 41.5213 131.631 41.7873 131.51 42.086C131.398 42.3753 131.342 42.688 131.342 43.024V46.426C131.342 46.5847 131.286 46.72 131.174 46.832C131.071 46.944 130.94 47 130.782 47ZM138.872 47.14C138.126 47.14 137.472 46.9813 136.912 46.664C136.352 46.3467 135.914 45.9127 135.596 45.362C135.288 44.802 135.134 44.158 135.134 43.43C135.134 42.618 135.293 41.9273 135.61 41.358C135.937 40.7793 136.357 40.3407 136.87 40.042C137.393 39.734 137.944 39.58 138.522 39.58C138.952 39.58 139.367 39.6593 139.768 39.818C140.17 39.9767 140.524 40.21 140.832 40.518C141.14 40.8167 141.388 41.1807 141.574 41.61C141.761 42.03 141.859 42.5013 141.868 43.024C141.868 43.1733 141.812 43.2993 141.7 43.402C141.588 43.5047 141.458 43.556 141.308 43.556H135.778L135.526 42.59H140.916L140.692 42.786V42.478C140.655 42.0953 140.524 41.7687 140.3 41.498C140.086 41.218 139.82 41.0033 139.502 40.854C139.194 40.7047 138.868 40.63 138.522 40.63C138.242 40.63 137.962 40.6813 137.682 40.784C137.412 40.8773 137.164 41.036 136.94 41.26C136.726 41.4747 136.548 41.7547 136.408 42.1C136.278 42.4453 136.212 42.8607 136.212 43.346C136.212 43.8873 136.32 44.3633 136.534 44.774C136.758 45.1847 137.066 45.5113 137.458 45.754C137.85 45.9873 138.308 46.104 138.83 46.104C139.157 46.104 139.442 46.062 139.684 45.978C139.927 45.894 140.137 45.7913 140.314 45.67C140.492 45.5393 140.641 45.4087 140.762 45.278C140.884 45.194 141 45.152 141.112 45.152C141.252 45.152 141.364 45.1987 141.448 45.292C141.542 45.3853 141.588 45.4973 141.588 45.628C141.588 45.7867 141.514 45.9267 141.364 46.048C141.103 46.3373 140.748 46.594 140.3 46.818C139.852 47.0327 139.376 47.14 138.872 47.14ZM149.516 36.64C149.674 36.64 149.805 36.696 149.908 36.808C150.02 36.9107 150.076 37.0413 150.076 37.2V46.426C150.076 46.5847 150.02 46.72 149.908 46.832C149.805 46.944 149.674 47 149.516 47C149.348 47 149.212 46.944 149.11 46.832C149.007 46.72 148.956 46.5847 148.956 46.426V45.096L149.222 44.998C149.222 45.222 149.152 45.46 149.012 45.712C148.872 45.9547 148.68 46.1833 148.438 46.398C148.195 46.6127 147.906 46.79 147.57 46.93C147.243 47.07 146.888 47.14 146.506 47.14C145.88 47.14 145.311 46.9767 144.798 46.65C144.294 46.3233 143.892 45.8753 143.594 45.306C143.304 44.7367 143.16 44.088 143.16 43.36C143.16 42.6227 143.304 41.9693 143.594 41.4C143.892 40.8307 144.294 40.3873 144.798 40.07C145.302 39.7433 145.862 39.58 146.478 39.58C146.87 39.58 147.238 39.6453 147.584 39.776C147.929 39.9067 148.228 40.084 148.48 40.308C148.741 40.532 148.946 40.7793 149.096 41.05C149.245 41.3207 149.32 41.5913 149.32 41.862L148.956 41.778V37.2C148.956 37.0413 149.007 36.9107 149.11 36.808C149.212 36.696 149.348 36.64 149.516 36.64ZM146.632 46.104C147.098 46.104 147.509 45.9873 147.864 45.754C148.228 45.5113 148.508 45.1847 148.704 44.774C148.909 44.354 149.012 43.8827 149.012 43.36C149.012 42.828 148.909 42.3567 148.704 41.946C148.508 41.5353 148.228 41.2133 147.864 40.98C147.509 40.7373 147.098 40.616 146.632 40.616C146.174 40.616 145.764 40.7373 145.4 40.98C145.045 41.2133 144.765 41.5353 144.56 41.946C144.354 42.3567 144.252 42.828 144.252 43.36C144.252 43.8733 144.354 44.34 144.56 44.76C144.765 45.1707 145.045 45.4973 145.4 45.74C145.764 45.9827 146.174 46.104 146.632 46.104ZM153.229 46.426C153.229 46.5847 153.173 46.72 153.061 46.832C152.959 46.944 152.828 47 152.669 47C152.501 47 152.366 46.944 152.263 46.832C152.161 46.72 152.109 46.5847 152.109 46.426V40.21C152.109 40.0513 152.161 39.9207 152.263 39.818C152.375 39.706 152.511 39.65 152.669 39.65C152.828 39.65 152.959 39.706 153.061 39.818C153.173 39.9207 153.229 40.0513 153.229 40.21V46.426ZM152.669 38.712C152.436 38.712 152.263 38.6653 152.151 38.572C152.039 38.4787 151.983 38.334 151.983 38.138V37.942C151.983 37.746 152.044 37.6013 152.165 37.508C152.287 37.4147 152.459 37.368 152.683 37.368C152.907 37.368 153.075 37.4147 153.187 37.508C153.299 37.6013 153.355 37.746 153.355 37.942V38.138C153.355 38.334 153.295 38.4787 153.173 38.572C153.061 38.6653 152.893 38.712 152.669 38.712ZM154.961 39.804H158.251C158.4 39.804 158.522 39.8553 158.615 39.958C158.718 40.0607 158.769 40.182 158.769 40.322C158.769 40.4713 158.718 40.5973 158.615 40.7C158.522 40.7933 158.4 40.84 158.251 40.84H154.961C154.821 40.84 154.7 40.7887 154.597 40.686C154.494 40.5833 154.443 40.4573 154.443 40.308C154.443 40.168 154.494 40.0513 154.597 39.958C154.7 39.8553 154.821 39.804 154.961 39.804ZM156.431 37.9C156.59 37.9 156.72 37.956 156.823 38.068C156.926 38.1707 156.977 38.3013 156.977 38.46V45.222C156.977 45.446 157.01 45.614 157.075 45.726C157.14 45.838 157.224 45.9173 157.327 45.964C157.439 46.0013 157.546 46.02 157.649 46.02C157.742 46.02 157.822 46.006 157.887 45.978C157.962 45.9407 158.046 45.922 158.139 45.922C158.232 45.922 158.316 45.9687 158.391 46.062C158.475 46.146 158.517 46.258 158.517 46.398C158.517 46.566 158.419 46.7107 158.223 46.832C158.027 46.944 157.808 47 157.565 47C157.434 47 157.271 46.9907 157.075 46.972C156.888 46.9533 156.702 46.8927 156.515 46.79C156.328 46.6873 156.17 46.5193 156.039 46.286C155.918 46.0433 155.857 45.7073 155.857 45.278V38.46C155.857 38.3013 155.913 38.1707 156.025 38.068C156.137 37.956 156.272 37.9 156.431 37.9ZM169.782 45.894C169.941 45.894 170.076 45.95 170.188 46.062C170.3 46.1647 170.356 46.2953 170.356 46.454C170.356 46.6127 170.3 46.7433 170.188 46.846C170.076 46.9487 169.941 47 169.782 47H164.938C164.78 47 164.644 46.944 164.532 46.832C164.43 46.72 164.378 46.5847 164.378 46.426V37.76C164.378 37.6013 164.434 37.4707 164.546 37.368C164.658 37.256 164.798 37.2 164.966 37.2C165.125 37.2 165.26 37.256 165.372 37.368C165.484 37.4707 165.54 37.6013 165.54 37.76V46.146L165.26 45.894H169.782ZM178.644 43.36C178.644 44.088 178.481 44.7367 178.154 45.306C177.837 45.8753 177.403 46.3233 176.852 46.65C176.311 46.9767 175.7 47.14 175.018 47.14C174.337 47.14 173.721 46.9767 173.17 46.65C172.62 46.3233 172.181 45.8753 171.854 45.306C171.537 44.7367 171.378 44.088 171.378 43.36C171.378 42.632 171.537 41.9833 171.854 41.414C172.181 40.8447 172.62 40.3967 173.17 40.07C173.721 39.7433 174.337 39.58 175.018 39.58C175.7 39.58 176.311 39.7433 176.852 40.07C177.403 40.3967 177.837 40.8447 178.154 41.414C178.481 41.9833 178.644 42.632 178.644 43.36ZM177.524 43.36C177.524 42.8187 177.412 42.3427 177.188 41.932C176.974 41.5213 176.675 41.1993 176.292 40.966C175.919 40.7327 175.494 40.616 175.018 40.616C174.542 40.616 174.113 40.7327 173.73 40.966C173.357 41.1993 173.058 41.5213 172.834 41.932C172.61 42.3427 172.498 42.8187 172.498 43.36C172.498 43.892 172.61 44.3633 172.834 44.774C173.058 45.1847 173.357 45.5113 173.73 45.754C174.113 45.9873 174.542 46.104 175.018 46.104C175.494 46.104 175.919 45.9873 176.292 45.754C176.675 45.5113 176.974 45.1847 177.188 44.774C177.412 44.3633 177.524 43.892 177.524 43.36ZM179.923 45.852C179.839 45.7307 179.802 45.6047 179.811 45.474C179.82 45.334 179.9 45.2127 180.049 45.11C180.142 45.0447 180.25 45.0167 180.371 45.026C180.502 45.0353 180.618 45.096 180.721 45.208C180.982 45.516 181.281 45.7633 181.617 45.95C181.953 46.1273 182.364 46.216 182.849 46.216C183.073 46.2067 183.297 46.1693 183.521 46.104C183.745 46.0387 183.932 45.9267 184.081 45.768C184.24 45.6 184.319 45.3807 184.319 45.11C184.319 44.8487 184.24 44.6433 184.081 44.494C183.922 44.3353 183.717 44.2093 183.465 44.116C183.213 44.0133 182.938 43.9247 182.639 43.85C182.331 43.766 182.028 43.6727 181.729 43.57C181.43 43.458 181.16 43.3227 180.917 43.164C180.684 42.996 180.492 42.7907 180.343 42.548C180.203 42.296 180.133 41.9927 180.133 41.638C180.133 41.218 180.245 40.854 180.469 40.546C180.702 40.238 181.01 40 181.393 39.832C181.785 39.664 182.21 39.58 182.667 39.58C182.928 39.58 183.199 39.6127 183.479 39.678C183.768 39.734 184.048 39.8367 184.319 39.986C184.59 40.126 184.828 40.322 185.033 40.574C185.117 40.6673 185.164 40.784 185.173 40.924C185.182 41.064 185.122 41.19 184.991 41.302C184.888 41.3767 184.772 41.4093 184.641 41.4C184.52 41.3907 184.417 41.344 184.333 41.26C184.137 41.0267 183.89 40.8493 183.591 40.728C183.302 40.5973 182.98 40.532 182.625 40.532C182.401 40.532 182.182 40.5647 181.967 40.63C181.752 40.6953 181.57 40.8073 181.421 40.966C181.281 41.1153 181.211 41.3253 181.211 41.596C181.22 41.848 181.304 42.0533 181.463 42.212C181.622 42.3707 181.836 42.5013 182.107 42.604C182.378 42.6973 182.676 42.7907 183.003 42.884C183.302 42.9587 183.586 43.0473 183.857 43.15C184.137 43.2433 184.389 43.3693 184.613 43.528C184.837 43.6867 185.014 43.892 185.145 44.144C185.276 44.3867 185.341 44.6947 185.341 45.068C185.341 45.4973 185.22 45.8707 184.977 46.188C184.734 46.496 184.412 46.734 184.011 46.902C183.619 47.0607 183.194 47.14 182.737 47.14C182.224 47.14 181.715 47.042 181.211 46.846C180.716 46.65 180.287 46.3187 179.923 45.852ZM186.554 45.852C186.47 45.7307 186.432 45.6047 186.442 45.474C186.451 45.334 186.53 45.2127 186.68 45.11C186.773 45.0447 186.88 45.0167 187.002 45.026C187.132 45.0353 187.249 45.096 187.352 45.208C187.613 45.516 187.912 45.7633 188.248 45.95C188.584 46.1273 188.994 46.216 189.48 46.216C189.704 46.2067 189.928 46.1693 190.152 46.104C190.376 46.0387 190.562 45.9267 190.712 45.768C190.87 45.6 190.95 45.3807 190.95 45.11C190.95 44.8487 190.87 44.6433 190.712 44.494C190.553 44.3353 190.348 44.2093 190.096 44.116C189.844 44.0133 189.568 43.9247 189.27 43.85C188.962 43.766 188.658 43.6727 188.36 43.57C188.061 43.458 187.79 43.3227 187.548 43.164C187.314 42.996 187.123 42.7907 186.974 42.548C186.834 42.296 186.764 41.9927 186.764 41.638C186.764 41.218 186.876 40.854 187.1 40.546C187.333 40.238 187.641 40 188.024 39.832C188.416 39.664 188.84 39.58 189.298 39.58C189.559 39.58 189.83 39.6127 190.11 39.678C190.399 39.734 190.679 39.8367 190.95 39.986C191.22 40.126 191.458 40.322 191.664 40.574C191.748 40.6673 191.794 40.784 191.804 40.924C191.813 41.064 191.752 41.19 191.622 41.302C191.519 41.3767 191.402 41.4093 191.272 41.4C191.15 41.3907 191.048 41.344 190.964 41.26C190.768 41.0267 190.52 40.8493 190.222 40.728C189.932 40.5973 189.61 40.532 189.256 40.532C189.032 40.532 188.812 40.5647 188.598 40.63C188.383 40.6953 188.201 40.8073 188.052 40.966C187.912 41.1153 187.842 41.3253 187.842 41.596C187.851 41.848 187.935 42.0533 188.094 42.212C188.252 42.3707 188.467 42.5013 188.738 42.604C189.008 42.6973 189.307 42.7907 189.634 42.884C189.932 42.9587 190.217 43.0473 190.488 43.15C190.768 43.2433 191.02 43.3693 191.244 43.528C191.468 43.6867 191.645 43.892 191.776 44.144C191.906 44.3867 191.972 44.6947 191.972 45.068C191.972 45.4973 191.85 45.8707 191.608 46.188C191.365 46.496 191.043 46.734 190.642 46.902C190.25 47.0607 189.825 47.14 189.368 47.14C188.854 47.14 188.346 47.042 187.842 46.846C187.347 46.65 186.918 46.3187 186.554 45.852Z" fill="#101828"/>
<line x1="56.5" y1="63" x2="447.5" y2="63" stroke="#F2F4F7" stroke-linecap="round"/>
<line x1="56.5" y1="97.5" x2="447.5" y2="97.5" stroke="#F2F4F7" stroke-linecap="round"/>
<line x1="56.5" y1="129.5" x2="447.5" y2="129.5" stroke="#F2F4F7" stroke-linecap="round"/>
<line x1="56.5" y1="161.5" x2="447.5" y2="161.5" stroke="#F2F4F7" stroke-linecap="round"/>
<line x1="56.5" y1="193.5" x2="447.5" y2="193.5" stroke="#F2F4F7" stroke-linecap="round"/>
<line x1="56.5" y1="225.5" x2="447.5" y2="225.5" stroke="#F2F4F7" stroke-linecap="round"/>
<path d="M68.038 248.12C67.534 248.12 67.082 247.98 66.682 247.7C66.282 247.42 65.978 247.052 65.77 246.596C65.73 246.524 65.71 246.46 65.71 246.404C65.71 246.3 65.75 246.22 65.83 246.164C65.91 246.1 65.99 246.068 66.07 246.068C66.15 246.068 66.214 246.088 66.262 246.128C66.318 246.168 66.366 246.216 66.406 246.272C66.558 246.608 66.778 246.88 67.066 247.088C67.354 247.296 67.678 247.4 68.038 247.4C68.406 247.4 68.73 247.324 69.01 247.172C69.29 247.012 69.506 246.792 69.658 246.512C69.818 246.232 69.898 245.912 69.898 245.552V239.96C69.898 239.864 69.934 239.78 70.006 239.708C70.086 239.636 70.178 239.6 70.282 239.6C70.394 239.6 70.482 239.636 70.546 239.708C70.618 239.78 70.654 239.864 70.654 239.96V245.552C70.654 246.048 70.542 246.492 70.318 246.884C70.094 247.268 69.786 247.572 69.394 247.796C69.002 248.012 68.55 248.12 68.038 248.12ZM77.7612 241.868C77.8652 241.868 77.9492 241.904 78.0132 241.976C78.0852 242.048 78.1212 242.136 78.1212 242.24V247.64C78.1212 247.736 78.0852 247.82 78.0132 247.892C77.9412 247.964 77.8572 248 77.7612 248C77.6572 248 77.5692 247.964 77.4972 247.892C77.4332 247.82 77.4012 247.736 77.4012 247.64V246.212L77.6052 246.116C77.6052 246.34 77.5412 246.568 77.4132 246.8C77.2932 247.032 77.1252 247.248 76.9092 247.448C76.6932 247.648 76.4372 247.812 76.1412 247.94C75.8532 248.06 75.5412 248.12 75.2052 248.12C74.6612 248.12 74.1732 247.98 73.7412 247.7C73.3172 247.42 72.9812 247.036 72.7332 246.548C72.4932 246.06 72.3732 245.512 72.3732 244.904C72.3732 244.28 72.4972 243.732 72.7452 243.26C72.9932 242.78 73.3292 242.404 73.7532 242.132C74.1772 241.86 74.6572 241.724 75.1932 241.724C75.5372 241.724 75.8572 241.784 76.1532 241.904C76.4572 242.024 76.7212 242.188 76.9452 242.396C77.1692 242.604 77.3412 242.844 77.4612 243.116C77.5892 243.38 77.6532 243.656 77.6532 243.944L77.4012 243.764V242.24C77.4012 242.136 77.4332 242.048 77.4972 241.976C77.5692 241.904 77.6572 241.868 77.7612 241.868ZM75.2652 247.448C75.6892 247.448 76.0652 247.34 76.3932 247.124C76.7212 246.9 76.9772 246.596 77.1612 246.212C77.3532 245.82 77.4492 245.384 77.4492 244.904C77.4492 244.432 77.3532 244.008 77.1612 243.632C76.9772 243.256 76.7212 242.956 76.3932 242.732C76.0652 242.508 75.6892 242.396 75.2652 242.396C74.8492 242.396 74.4732 242.504 74.1372 242.72C73.8092 242.936 73.5492 243.232 73.3572 243.608C73.1732 243.984 73.0812 244.416 73.0812 244.904C73.0812 245.384 73.1732 245.82 73.3572 246.212C73.5492 246.596 73.8092 246.9 74.1372 247.124C74.4652 247.34 74.8412 247.448 75.2652 247.448ZM82.9025 241.724C83.4305 241.724 83.8505 241.832 84.1625 242.048C84.4825 242.256 84.7105 242.544 84.8465 242.912C84.9905 243.272 85.0625 243.672 85.0625 244.112V247.64C85.0625 247.736 85.0265 247.82 84.9545 247.892C84.8825 247.964 84.7985 248 84.7025 248C84.5905 248 84.5025 247.964 84.4385 247.892C84.3745 247.82 84.3425 247.736 84.3425 247.64V244.148C84.3425 243.828 84.2905 243.536 84.1865 243.272C84.0825 243.008 83.9105 242.796 83.6705 242.636C83.4385 242.476 83.1305 242.396 82.7465 242.396C82.4025 242.396 82.0745 242.476 81.7625 242.636C81.4585 242.796 81.2105 243.008 81.0185 243.272C80.8265 243.536 80.7305 243.828 80.7305 244.148V247.64C80.7305 247.736 80.6945 247.82 80.6225 247.892C80.5505 247.964 80.4665 248 80.3705 248C80.2585 248 80.1705 247.964 80.1065 247.892C80.0425 247.82 80.0105 247.736 80.0105 247.64V242.264C80.0105 242.168 80.0425 242.084 80.1065 242.012C80.1785 241.94 80.2665 241.904 80.3705 241.904C80.4745 241.904 80.5585 241.94 80.6225 242.012C80.6945 242.084 80.7305 242.168 80.7305 242.264V243.272L80.4545 243.704C80.4705 243.448 80.5505 243.204 80.6945 242.972C80.8465 242.732 81.0385 242.52 81.2705 242.336C81.5025 242.144 81.7585 241.996 82.0385 241.892C82.3265 241.78 82.6145 241.724 82.9025 241.724Z" fill="#667085"/>
<path d="M124.834 239.6C124.89 239.6 124.946 239.612 125.002 239.636C125.066 239.66 125.118 239.7 125.158 239.756L128.47 244.724L128.146 244.712L131.47 239.756C131.558 239.636 131.666 239.584 131.794 239.6C131.89 239.6 131.97 239.636 132.034 239.708C132.106 239.772 132.142 239.856 132.142 239.96V247.64C132.142 247.736 132.106 247.82 132.034 247.892C131.962 247.964 131.874 248 131.77 248C131.658 248 131.566 247.964 131.494 247.892C131.422 247.82 131.386 247.736 131.386 247.64V240.692L131.602 240.716L128.566 245.312C128.542 245.36 128.506 245.4 128.458 245.432C128.41 245.456 128.354 245.464 128.29 245.456C128.234 245.464 128.178 245.456 128.122 245.432C128.074 245.4 128.034 245.36 128.002 245.312L124.954 240.668L125.182 240.512V247.64C125.182 247.736 125.146 247.82 125.074 247.892C125.01 247.964 124.926 248 124.822 248C124.718 248 124.634 247.964 124.57 247.892C124.506 247.82 124.474 247.736 124.474 247.64V239.96C124.474 239.864 124.506 239.78 124.57 239.708C124.642 239.636 124.73 239.6 124.834 239.6ZM139.248 241.868C139.352 241.868 139.436 241.904 139.5 241.976C139.572 242.048 139.608 242.136 139.608 242.24V247.64C139.608 247.736 139.572 247.82 139.5 247.892C139.428 247.964 139.344 248 139.248 248C139.144 248 139.056 247.964 138.984 247.892C138.92 247.82 138.888 247.736 138.888 247.64V246.212L139.092 246.116C139.092 246.34 139.028 246.568 138.9 246.8C138.78 247.032 138.612 247.248 138.396 247.448C138.18 247.648 137.924 247.812 137.628 247.94C137.34 248.06 137.028 248.12 136.692 248.12C136.148 248.12 135.66 247.98 135.228 247.7C134.804 247.42 134.468 247.036 134.22 246.548C133.98 246.06 133.86 245.512 133.86 244.904C133.86 244.28 133.984 243.732 134.232 243.26C134.48 242.78 134.816 242.404 135.24 242.132C135.664 241.86 136.144 241.724 136.68 241.724C137.024 241.724 137.344 241.784 137.64 241.904C137.944 242.024 138.208 242.188 138.432 242.396C138.656 242.604 138.828 242.844 138.948 243.116C139.076 243.38 139.14 243.656 139.14 243.944L138.888 243.764V242.24C138.888 242.136 138.92 242.048 138.984 241.976C139.056 241.904 139.144 241.868 139.248 241.868ZM136.752 247.448C137.176 247.448 137.552 247.34 137.88 247.124C138.208 246.9 138.464 246.596 138.648 246.212C138.84 245.82 138.936 245.384 138.936 244.904C138.936 244.432 138.84 244.008 138.648 243.632C138.464 243.256 138.208 242.956 137.88 242.732C137.552 242.508 137.176 242.396 136.752 242.396C136.336 242.396 135.96 242.504 135.624 242.72C135.296 242.936 135.036 243.232 134.844 243.608C134.66 243.984 134.568 244.416 134.568 244.904C134.568 245.384 134.66 245.82 134.844 246.212C135.036 246.596 135.296 246.9 135.624 247.124C135.952 247.34 136.328 247.448 136.752 247.448ZM141.857 248C141.745 248 141.657 247.964 141.593 247.892C141.529 247.82 141.497 247.736 141.497 247.64V242.264C141.497 242.168 141.529 242.084 141.593 242.012C141.665 241.94 141.753 241.904 141.857 241.904C141.961 241.904 142.045 241.94 142.109 242.012C142.181 242.084 142.217 242.168 142.217 242.264V244.064L142.037 244.1C142.061 243.82 142.129 243.544 142.241 243.272C142.361 242.992 142.521 242.736 142.721 242.504C142.921 242.272 143.157 242.084 143.429 241.94C143.709 241.796 144.021 241.724 144.365 241.724C144.509 241.724 144.649 241.756 144.785 241.82C144.921 241.876 144.989 241.972 144.989 242.108C144.989 242.228 144.957 242.32 144.893 242.384C144.829 242.448 144.753 242.48 144.665 242.48C144.593 242.48 144.513 242.46 144.425 242.42C144.345 242.38 144.237 242.36 144.101 242.36C143.877 242.36 143.653 242.428 143.429 242.564C143.205 242.692 143.001 242.868 142.817 243.092C142.633 243.316 142.485 243.568 142.373 243.848C142.269 244.12 142.217 244.396 142.217 244.676V247.64C142.217 247.736 142.181 247.82 142.109 247.892C142.037 247.964 141.953 248 141.857 248Z" fill="#667085"/>
<path d="M184.798 239.6C184.854 239.6 184.91 239.612 184.966 239.636C185.03 239.66 185.082 239.7 185.122 239.756L188.434 244.724L188.11 244.712L191.434 239.756C191.522 239.636 191.63 239.584 191.758 239.6C191.854 239.6 191.934 239.636 191.998 239.708C192.07 239.772 192.106 239.856 192.106 239.96V247.64C192.106 247.736 192.07 247.82 191.998 247.892C191.926 247.964 191.838 248 191.734 248C191.622 248 191.53 247.964 191.458 247.892C191.386 247.82 191.35 247.736 191.35 247.64V240.692L191.566 240.716L188.53 245.312C188.506 245.36 188.47 245.4 188.422 245.432C188.374 245.456 188.318 245.464 188.254 245.456C188.198 245.464 188.142 245.456 188.086 245.432C188.038 245.4 187.998 245.36 187.966 245.312L184.918 240.668L185.146 240.512V247.64C185.146 247.736 185.11 247.82 185.038 247.892C184.974 247.964 184.89 248 184.786 248C184.682 248 184.598 247.964 184.534 247.892C184.47 247.82 184.438 247.736 184.438 247.64V239.96C184.438 239.864 184.47 239.78 184.534 239.708C184.606 239.636 184.694 239.6 184.798 239.6ZM199.212 241.868C199.316 241.868 199.4 241.904 199.464 241.976C199.536 242.048 199.572 242.136 199.572 242.24V247.64C199.572 247.736 199.536 247.82 199.464 247.892C199.392 247.964 199.308 248 199.212 248C199.108 248 199.02 247.964 198.948 247.892C198.884 247.82 198.852 247.736 198.852 247.64V246.212L199.056 246.116C199.056 246.34 198.992 246.568 198.864 246.8C198.744 247.032 198.576 247.248 198.36 247.448C198.144 247.648 197.888 247.812 197.592 247.94C197.304 248.06 196.992 248.12 196.656 248.12C196.112 248.12 195.624 247.98 195.192 247.7C194.768 247.42 194.432 247.036 194.184 246.548C193.944 246.06 193.824 245.512 193.824 244.904C193.824 244.28 193.948 243.732 194.196 243.26C194.444 242.78 194.78 242.404 195.204 242.132C195.628 241.86 196.108 241.724 196.644 241.724C196.988 241.724 197.308 241.784 197.604 241.904C197.908 242.024 198.172 242.188 198.396 242.396C198.62 242.604 198.792 242.844 198.912 243.116C199.04 243.38 199.104 243.656 199.104 243.944L198.852 243.764V242.24C198.852 242.136 198.884 242.048 198.948 241.976C199.02 241.904 199.108 241.868 199.212 241.868ZM196.716 247.448C197.14 247.448 197.516 247.34 197.844 247.124C198.172 246.9 198.428 246.596 198.612 246.212C198.804 245.82 198.9 245.384 198.9 244.904C198.9 244.432 198.804 244.008 198.612 243.632C198.428 243.256 198.172 242.956 197.844 242.732C197.516 242.508 197.14 242.396 196.716 242.396C196.3 242.396 195.924 242.504 195.588 242.72C195.26 242.936 195 243.232 194.808 243.608C194.624 243.984 194.532 244.416 194.532 244.904C194.532 245.384 194.624 245.82 194.808 246.212C195 246.596 195.26 246.9 195.588 247.124C195.916 247.34 196.292 247.448 196.716 247.448ZM206.033 241.76C206.137 241.76 206.221 241.796 206.285 241.868C206.357 241.94 206.393 242.024 206.393 242.12V247.412C206.393 248.06 206.265 248.604 206.009 249.044C205.753 249.492 205.409 249.828 204.977 250.052C204.545 250.284 204.053 250.4 203.501 250.4C203.157 250.4 202.837 250.36 202.541 250.28C202.253 250.208 202.017 250.112 201.833 249.992C201.737 249.936 201.665 249.868 201.617 249.788C201.569 249.708 201.565 249.624 201.605 249.536C201.645 249.424 201.705 249.348 201.785 249.308C201.873 249.276 201.961 249.28 202.049 249.32C202.185 249.392 202.381 249.48 202.637 249.584C202.893 249.688 203.185 249.74 203.513 249.74C203.953 249.74 204.333 249.648 204.653 249.464C204.981 249.28 205.233 249.012 205.409 248.66C205.585 248.316 205.673 247.904 205.673 247.424V246.56L205.757 246.848C205.637 247.096 205.465 247.316 205.241 247.508C205.025 247.7 204.773 247.852 204.485 247.964C204.205 248.068 203.905 248.12 203.585 248.12C203.105 248.12 202.705 248.024 202.385 247.832C202.073 247.632 201.841 247.36 201.689 247.016C201.537 246.672 201.461 246.268 201.461 245.804V242.12C201.461 242.024 201.493 241.94 201.557 241.868C201.621 241.796 201.709 241.76 201.821 241.76C201.925 241.76 202.009 241.796 202.073 241.868C202.145 241.94 202.181 242.024 202.181 242.12V245.696C202.181 246.256 202.301 246.688 202.541 246.992C202.789 247.296 203.189 247.448 203.741 247.448C204.085 247.448 204.401 247.368 204.689 247.208C204.977 247.04 205.213 246.824 205.397 246.56C205.581 246.288 205.673 246 205.673 245.696V242.12C205.673 242.024 205.705 241.94 205.769 241.868C205.841 241.796 205.929 241.76 206.033 241.76Z" fill="#667085"/>
<path d="M248.155 248.12C247.651 248.12 247.199 247.98 246.799 247.7C246.399 247.42 246.095 247.052 245.887 246.596C245.847 246.524 245.827 246.46 245.827 246.404C245.827 246.3 245.867 246.22 245.947 246.164C246.027 246.1 246.107 246.068 246.187 246.068C246.267 246.068 246.331 246.088 246.379 246.128C246.435 246.168 246.483 246.216 246.523 246.272C246.675 246.608 246.895 246.88 247.183 247.088C247.471 247.296 247.795 247.4 248.155 247.4C248.523 247.4 248.847 247.324 249.127 247.172C249.407 247.012 249.623 246.792 249.775 246.512C249.935 246.232 250.015 245.912 250.015 245.552V239.96C250.015 239.864 250.051 239.78 250.123 239.708C250.203 239.636 250.295 239.6 250.399 239.6C250.511 239.6 250.599 239.636 250.663 239.708C250.735 239.78 250.771 239.864 250.771 239.96V245.552C250.771 246.048 250.659 246.492 250.435 246.884C250.211 247.268 249.903 247.572 249.511 247.796C249.119 248.012 248.667 248.12 248.155 248.12ZM257.434 241.904C257.538 241.904 257.622 241.94 257.686 242.012C257.758 242.084 257.794 242.168 257.794 242.264V245.648C257.794 246.44 257.57 247.044 257.122 247.46C256.674 247.876 256.07 248.084 255.31 248.084C254.558 248.084 253.958 247.876 253.51 247.46C253.07 247.044 252.85 246.44 252.85 245.648V242.264C252.85 242.168 252.882 242.084 252.946 242.012C253.018 241.94 253.106 241.904 253.21 241.904C253.314 241.904 253.398 241.94 253.462 242.012C253.534 242.084 253.57 242.168 253.57 242.264V245.648C253.57 246.224 253.722 246.664 254.026 246.968C254.338 247.264 254.766 247.412 255.31 247.412C255.862 247.412 256.294 247.264 256.606 246.968C256.918 246.664 257.074 246.224 257.074 245.648V242.264C257.074 242.168 257.106 242.084 257.17 242.012C257.234 241.94 257.322 241.904 257.434 241.904ZM260.474 247.64C260.474 247.736 260.438 247.82 260.366 247.892C260.294 247.964 260.21 248 260.114 248C260.01 248 259.922 247.964 259.85 247.892C259.786 247.82 259.754 247.736 259.754 247.64V239.48C259.754 239.384 259.79 239.3 259.862 239.228C259.934 239.156 260.018 239.12 260.114 239.12C260.218 239.12 260.302 239.156 260.366 239.228C260.438 239.3 260.474 239.384 260.474 239.48V247.64Z" fill="#667085"/>
<path d="M302.31 248.12C301.702 248.128 301.174 248.032 300.726 247.832C300.278 247.632 299.85 247.332 299.442 246.932C299.402 246.9 299.366 246.86 299.334 246.812C299.31 246.764 299.298 246.708 299.298 246.644C299.298 246.548 299.334 246.46 299.406 246.38C299.486 246.3 299.574 246.26 299.67 246.26C299.766 246.26 299.854 246.3 299.934 246.38C300.246 246.716 300.598 246.972 300.99 247.148C301.39 247.324 301.818 247.412 302.274 247.412C302.658 247.412 302.998 247.352 303.294 247.232C303.598 247.112 303.838 246.94 304.014 246.716C304.19 246.492 304.278 246.232 304.278 245.936C304.278 245.568 304.178 245.272 303.978 245.048C303.778 244.816 303.514 244.628 303.186 244.484C302.858 244.332 302.494 244.196 302.094 244.076C301.766 243.98 301.454 243.872 301.158 243.752C300.862 243.624 300.598 243.472 300.366 243.296C300.134 243.112 299.954 242.888 299.826 242.624C299.698 242.36 299.634 242.04 299.634 241.664C299.634 241.24 299.746 240.864 299.97 240.536C300.194 240.208 300.51 239.952 300.918 239.768C301.334 239.576 301.814 239.48 302.358 239.48C302.83 239.48 303.282 239.56 303.714 239.72C304.154 239.88 304.502 240.116 304.758 240.428C304.878 240.556 304.938 240.672 304.938 240.776C304.938 240.856 304.898 240.936 304.818 241.016C304.738 241.096 304.65 241.136 304.554 241.136C304.474 241.136 304.406 241.108 304.35 241.052C304.214 240.884 304.042 240.736 303.834 240.608C303.626 240.472 303.394 240.368 303.138 240.296C302.89 240.224 302.63 240.188 302.358 240.188C301.982 240.188 301.642 240.248 301.338 240.368C301.042 240.48 300.806 240.644 300.63 240.86C300.462 241.076 300.378 241.336 300.378 241.64C300.378 241.976 300.474 242.252 300.666 242.468C300.858 242.684 301.11 242.864 301.422 243.008C301.734 243.144 302.066 243.272 302.418 243.392C302.762 243.488 303.09 243.6 303.402 243.728C303.722 243.848 304.002 244 304.242 244.184C304.49 244.368 304.682 244.6 304.818 244.88C304.962 245.16 305.034 245.512 305.034 245.936C305.034 246.344 304.918 246.712 304.686 247.04C304.454 247.368 304.134 247.628 303.726 247.82C303.326 248.012 302.854 248.112 302.31 248.12ZM309.324 248.12C308.708 248.12 308.164 247.988 307.692 247.724C307.22 247.46 306.852 247.092 306.588 246.62C306.324 246.148 306.192 245.596 306.192 244.964C306.192 244.284 306.324 243.704 306.588 243.224C306.86 242.744 307.208 242.376 307.632 242.12C308.064 241.856 308.52 241.724 309 241.724C309.352 241.724 309.692 241.788 310.02 241.916C310.356 242.036 310.652 242.22 310.908 242.468C311.172 242.708 311.38 243.004 311.532 243.356C311.692 243.708 311.78 244.116 311.796 244.58C311.788 244.676 311.748 244.76 311.676 244.832C311.604 244.896 311.52 244.928 311.424 244.928H306.612L306.468 244.28H311.196L311.04 244.424V244.184C311.008 243.808 310.888 243.488 310.68 243.224C310.472 242.96 310.22 242.76 309.924 242.624C309.628 242.488 309.32 242.42 309 242.42C308.76 242.42 308.512 242.468 308.256 242.564C308.008 242.66 307.78 242.812 307.572 243.02C307.372 243.22 307.208 243.48 307.08 243.8C306.952 244.112 306.888 244.484 306.888 244.916C306.888 245.388 306.984 245.816 307.176 246.2C307.368 246.584 307.644 246.888 308.004 247.112C308.372 247.336 308.808 247.448 309.312 247.448C309.592 247.448 309.844 247.408 310.068 247.328C310.292 247.248 310.488 247.144 310.656 247.016C310.824 246.88 310.964 246.74 311.076 246.596C311.164 246.524 311.252 246.488 311.34 246.488C311.42 246.488 311.488 246.52 311.544 246.584C311.608 246.648 311.64 246.72 311.64 246.8C311.64 246.896 311.6 246.98 311.52 247.052C311.28 247.34 310.968 247.592 310.584 247.808C310.2 248.016 309.78 248.12 309.324 248.12ZM316.253 241.82C316.797 241.82 317.277 241.956 317.693 242.228C318.117 242.492 318.453 242.86 318.701 243.332C318.949 243.796 319.073 244.332 319.073 244.94C319.073 245.548 318.949 246.088 318.701 246.56C318.453 247.032 318.117 247.404 317.693 247.676C317.269 247.948 316.793 248.084 316.265 248.084C315.985 248.084 315.717 248.044 315.461 247.964C315.213 247.876 314.985 247.76 314.777 247.616C314.569 247.472 314.385 247.304 314.225 247.112C314.065 246.912 313.937 246.696 313.841 246.464L314.057 246.308V250.04C314.057 250.136 314.021 250.22 313.949 250.292C313.885 250.364 313.801 250.4 313.697 250.4C313.593 250.4 313.505 250.364 313.433 250.292C313.369 250.22 313.337 250.136 313.337 250.04V242.216C313.337 242.112 313.369 242.024 313.433 241.952C313.497 241.88 313.585 241.844 313.697 241.844C313.801 241.844 313.885 241.88 313.949 241.952C314.021 242.024 314.057 242.112 314.057 242.216V243.512L313.889 243.416C313.969 243.168 314.085 242.948 314.237 242.756C314.397 242.556 314.581 242.388 314.789 242.252C314.997 242.108 315.225 242 315.473 241.928C315.721 241.856 315.981 241.82 316.253 241.82ZM316.193 242.492C315.761 242.492 315.381 242.6 315.053 242.816C314.725 243.024 314.465 243.312 314.273 243.68C314.089 244.04 313.997 244.46 313.997 244.94C313.997 245.412 314.089 245.836 314.273 246.212C314.465 246.588 314.725 246.884 315.053 247.1C315.381 247.308 315.761 247.412 316.193 247.412C316.617 247.412 316.989 247.308 317.309 247.1C317.637 246.884 317.897 246.588 318.089 246.212C318.281 245.836 318.377 245.412 318.377 244.94C318.377 244.468 318.281 244.048 318.089 243.68C317.897 243.312 317.637 243.024 317.309 242.816C316.989 242.6 316.617 242.492 316.193 242.492Z" fill="#667085"/>
<path d="M365.17 238.273V247H364.147L359.392 240.148H359.306V247H358.25V238.273H359.272L364.045 245.142H364.13V238.273H365.17ZM369.807 247.136C369.217 247.136 368.698 246.996 368.252 246.714C367.809 246.433 367.462 246.04 367.212 245.534C366.965 245.028 366.842 244.437 366.842 243.761C366.842 243.08 366.965 242.484 367.212 241.976C367.462 241.467 367.809 241.072 368.252 240.791C368.698 240.51 369.217 240.369 369.807 240.369C370.398 240.369 370.915 240.51 371.359 240.791C371.805 241.072 372.151 241.467 372.398 241.976C372.648 242.484 372.773 243.08 372.773 243.761C372.773 244.437 372.648 245.028 372.398 245.534C372.151 246.04 371.805 246.433 371.359 246.714C370.915 246.996 370.398 247.136 369.807 247.136ZM369.807 246.233C370.256 246.233 370.626 246.118 370.915 245.888C371.205 245.658 371.42 245.355 371.559 244.98C371.698 244.605 371.768 244.199 371.768 243.761C371.768 243.324 371.698 242.916 371.559 242.538C371.42 242.161 371.205 241.855 370.915 241.622C370.626 241.389 370.256 241.273 369.807 241.273C369.359 241.273 368.989 241.389 368.699 241.622C368.41 241.855 368.195 242.161 368.056 242.538C367.917 242.916 367.847 243.324 367.847 243.761C367.847 244.199 367.917 244.605 368.056 244.98C368.195 245.355 368.41 245.658 368.699 245.888C368.989 246.118 369.359 246.233 369.807 246.233ZM379.426 240.455L377.006 247H375.983L373.563 240.455H374.654L376.461 245.67H376.529L378.336 240.455H379.426Z" fill="#667085"/>
<path d="M421.438 247H418.744V238.273H421.557C422.403 238.273 423.128 238.447 423.73 238.797C424.332 239.143 424.794 239.642 425.115 240.293C425.436 240.94 425.597 241.716 425.597 242.619C425.597 243.528 425.435 244.311 425.111 244.967C424.787 245.621 424.315 246.124 423.696 246.476C423.077 246.825 422.324 247 421.438 247ZM419.801 246.062H421.369C422.091 246.062 422.689 245.923 423.163 245.645C423.638 245.366 423.991 244.97 424.224 244.456C424.457 243.942 424.574 243.33 424.574 242.619C424.574 241.915 424.459 241.308 424.229 240.8C423.999 240.288 423.655 239.896 423.197 239.624C422.74 239.348 422.17 239.21 421.489 239.21H419.801V246.062ZM429.977 247.136C429.347 247.136 428.803 246.997 428.345 246.719C427.891 246.438 427.54 246.045 427.293 245.543C427.048 245.037 426.926 244.449 426.926 243.778C426.926 243.108 427.048 242.517 427.293 242.006C427.54 241.491 427.884 241.091 428.324 240.804C428.767 240.514 429.284 240.369 429.875 240.369C430.216 240.369 430.553 240.426 430.885 240.54C431.217 240.653 431.52 240.838 431.793 241.094C432.065 241.347 432.283 241.682 432.445 242.099C432.607 242.517 432.688 243.031 432.688 243.642V244.068H427.642V243.199H431.665C431.665 242.83 431.591 242.5 431.443 242.21C431.298 241.92 431.091 241.692 430.821 241.524C430.554 241.357 430.239 241.273 429.875 241.273C429.474 241.273 429.128 241.372 428.835 241.571C428.545 241.767 428.322 242.023 428.166 242.338C428.01 242.653 427.932 242.991 427.932 243.352V243.932C427.932 244.426 428.017 244.845 428.188 245.189C428.361 245.53 428.601 245.79 428.908 245.969C429.214 246.145 429.571 246.233 429.977 246.233C430.241 246.233 430.48 246.196 430.693 246.122C430.909 246.045 431.095 245.932 431.251 245.781C431.408 245.628 431.528 245.437 431.614 245.21L432.585 245.483C432.483 245.812 432.311 246.102 432.07 246.352C431.828 246.599 431.53 246.793 431.175 246.932C430.82 247.068 430.42 247.136 429.977 247.136ZM436.876 247.136C436.263 247.136 435.734 246.991 435.291 246.702C434.848 246.412 434.507 246.013 434.268 245.504C434.03 244.996 433.911 244.415 433.911 243.761C433.911 243.097 434.033 242.51 434.277 242.001C434.524 241.49 434.868 241.091 435.308 240.804C435.751 240.514 436.268 240.369 436.859 240.369C437.32 240.369 437.734 240.455 438.104 240.625C438.473 240.795 438.776 241.034 439.011 241.341C439.247 241.648 439.393 242.006 439.45 242.415H438.445C438.368 242.116 438.197 241.852 437.933 241.622C437.672 241.389 437.32 241.273 436.876 241.273C436.484 241.273 436.141 241.375 435.845 241.58C435.553 241.781 435.324 242.067 435.159 242.436C434.997 242.803 434.916 243.233 434.916 243.727C434.916 244.233 434.996 244.673 435.155 245.048C435.317 245.423 435.544 245.714 435.837 245.922C436.132 246.129 436.479 246.233 436.876 246.233C437.138 246.233 437.375 246.188 437.588 246.097C437.801 246.006 437.982 245.875 438.129 245.705C438.277 245.534 438.382 245.33 438.445 245.091H439.45C439.393 245.477 439.253 245.825 439.028 246.135C438.807 246.442 438.513 246.686 438.146 246.868C437.783 247.047 437.359 247.136 436.876 247.136Z" fill="#667085"/>
<g style="mix-blend-mode:multiply" opacity="0.1">
<path d="M64.8839 126.122L56 129.031V226H448V93.6875L439.671 98.5199H430.788L426.623 103.045H421.071C419.59 103.799 416.518 105.307 416.074 105.307C415.629 105.307 412.742 106.212 411.354 106.665L399.416 108.022L392.476 109.832L381.371 108.022L375.541 106.665L367.212 109.832H358.606L351.388 106.665C348.612 106.212 342.948 105.307 342.504 105.307C342.06 105.307 338.432 104.402 336.674 103.95H332.232L321.683 105.307L312.521 106.665L308.357 109.832L295.864 111.19L289.479 112.547L282.261 114.809L275.32 120.239H272.266L263.938 118.882L255.887 114.809L248.946 112.547H244.782L237.564 111.19L227.292 112.547H217.575L207.858 114.809L198.142 117.524L190.924 120.239L183.15 121.597L172.601 120.239L164.272 121.597L155.943 122.954L148.17 121.597L137.62 124.764L128.737 122.954L119.853 124.764H111.246L102.085 126.122H92.6459L83.2068 127.479L74.0453 124.764L64.8839 126.122Z" fill="url(#paint0_linear_4_7556)"/>
</g>
<path d="M56 129.031L64.8839 126.122L74.0453 124.764L83.2068 127.479L92.6459 126.122H102.085L111.246 124.764H119.853L128.737 122.954L137.62 124.764L148.17 121.597L155.943 122.954L164.272 121.597L172.601 120.239L183.15 121.597L190.924 120.239L198.142 117.524L207.858 114.809L217.575 112.547H227.292L237.564 111.19L244.782 112.547H248.946L255.887 114.809L263.938 118.882L272.266 120.239H275.32L282.261 114.809L289.479 112.547L295.864 111.19L308.357 109.832L312.521 106.665L321.683 105.307L332.232 103.95H336.674C338.432 104.402 342.06 105.307 342.504 105.307C342.948 105.307 348.612 106.212 351.388 106.665L358.606 109.832H367.212L375.541 106.665L381.371 108.022L392.476 109.832L399.416 108.022L411.354 106.665C412.742 106.212 415.629 105.307 416.074 105.307C416.518 105.307 419.59 103.799 421.071 103.045H426.623L430.788 98.5199H439.671L448 93.6875" stroke="#4B7153" stroke-width="2" stroke-linecap="round" stroke-linejoin="round"/>
<path d="M56 164.232L64.8839 162.379L74.0453 161.514L83.2068 163.244L92.6459 162.379H102.085L111.246 161.514H119.853L128.737 160.361L137.62 161.514L148.17 159.497L155.943 160.361L164.272 159.497L172.601 158.632L183.15 159.497L190.924 158.632L198.142 156.903L207.858 155.173L217.575 153.732H227.292L237.564 152.867L244.782 153.732H248.946L255.887 155.173L263.938 157.767L272.266 158.632H275.32L282.261 155.173L289.479 153.732L295.864 152.867L308.357 152.003L312.521 149.985L321.683 149.12L332.232 148.256H336.674C338.432 148.544 342.06 149.12 342.504 149.12C342.948 149.12 348.612 149.697 351.388 149.985L358.606 152.003H367.212L375.541 149.985L381.371 150.85L392.476 152.003L399.416 150.85L411.354 149.985C412.742 149.697 415.629 149.12 416.074 149.12C416.518 149.12 419.59 148.16 421.071 147.679H426.623L430.788 144.797H439.671L448 141.719" stroke="#275430" stroke-width="2" stroke-linecap="round" stroke-linejoin="round"/>
<path d="M56 208.781L64.8839 203.857L74.0453 201.56L83.2068 206.155L92.6459 203.857H102.085L111.246 201.56H119.853L128.737 198.497L137.62 201.56L148.17 196.2L155.943 198.497L164.272 196.2L172.601 193.903L183.15 196.2L190.924 193.903L198.142 189.308L207.858 184.714L217.575 180.885H227.292L237.564 178.588L244.782 180.885H248.946L255.887 184.714L263.938 191.605L272.266 193.903H275.32L282.261 184.714L289.479 180.885L295.864 178.588L308.357 176.29L312.521 170.93L321.683 168.633L332.232 166.336H336.674C338.432 167.101 342.06 168.633 342.504 168.633C342.948 168.633 348.612 170.164 351.388 170.93L358.606 176.29H367.212L375.541 170.93L381.371 173.227L392.476 176.29L399.416 173.227L411.354 170.93C412.742 170.164 415.629 168.633 416.074 168.633C416.518 168.633 419.59 166.08 421.071 164.804H426.623L430.788 157.147H439.671L448 148.969" stroke="#D9AC6D" stroke-width="2" stroke-linecap="round" stroke-linejoin="round"/>
</g>
<defs>
<filter id="filter0_d_4_7556" x="0" y="0" width="504" height="332" filterUnits="userSpaceOnUse" color-interpolation-filters="sRGB">
<feFlood flood-opacity="0" result="BackgroundImageFix"/>
<feColorMatrix in="SourceAlpha" type="matrix" values="0 0 0 0 0 0 0 0 0 0 0 0 0 0 0 0 0 0 127 0" result="hardAlpha"/>
<feMorphology radius="12" operator="erode" in="SourceAlpha" result="effect1_dropShadow_4_7556"/>
<feOffset dy="24"/>
<feGaussianBlur stdDeviation="24"/>
<feColorMatrix type="matrix" values="0 0 0 0 0.0625882 0 0 0 0 0.0926346 0 0 0 0 0.15702 0 0 0 0.18 0"/>
<feBlend mode="normal" in2="BackgroundImageFix" result="effect1_dropShadow_4_7556"/>
<feBlend mode="normal" in="SourceGraphic" in2="effect1_dropShadow_4_7556" result="shape"/>
</filter>
<linearGradient id="paint0_linear_4_7556" x1="252" y1="93.6875" x2="252" y2="220.109" gradientUnits="userSpaceOnUse">
<stop stop-color="#7F56D9"/>
<stop offset="1" stop-color="#7F56D9" stop-opacity="0"/>
</linearGradient>
</defs>
</svg>
