<svg width="64" height="20" viewBox="0 0 64 20" fill="none" xmlns="http://www.w3.org/2000/svg">
<path d="M14.0605 16.0459C14.0605 16.6475 13.8385 17.1523 13.3945 17.5605C12.9505 17.9688 12.2881 18.2731 11.4072 18.4736C10.8988 18.5882 10.1898 18.6849 9.28027 18.7637C8.37077 18.8424 7.26074 18.8962 5.9502 18.9248C4.75423 18.9535 3.77311 19 3.00684 19.0645C2.24772 19.1361 1.70703 19.2363 1.38477 19.3652L2.00781 10.2559L0.514648 10.1377L0.62207 8.30078L2.1582 8.24707L2.29785 6.22754L0.697266 6.10938L0.804688 4.30469L2.42676 4.3584L2.55566 2.23145L0.890625 2.04883L0.912109 0.383789L7.05664 0.824219L4.0166 16.916L4.45703 16.8945C4.74349 16.8802 5.09082 16.891 5.49902 16.9268C5.90723 16.9554 6.37272 16.9912 6.89551 17.0342C7.46126 17.0843 7.94466 17.1237 8.3457 17.1523C8.74674 17.1738 9.07259 17.1846 9.32324 17.1846C10.4548 17.1846 11.3034 17.027 11.8691 16.7119C12.4349 16.3896 12.7178 15.9062 12.7178 15.2617C12.7178 15.0469 12.6891 14.8177 12.6318 14.5742C12.5745 14.3236 12.4886 14.055 12.374 13.7686L13.1797 13.3281C13.4733 13.8581 13.6917 14.3486 13.835 14.7998C13.9854 15.251 14.0605 15.6663 14.0605 16.0459ZM10.4082 11.6738C10.4082 12.0391 10.2757 12.3577 10.0107 12.6299C9.74577 12.8949 9.43066 13.0273 9.06543 13.0273C8.69303 13.0273 8.37435 12.8949 8.10938 12.6299C7.8444 12.3577 7.71191 12.0391 7.71191 11.6738C7.71191 11.3229 7.8444 11.0186 8.10938 10.7607C8.38151 10.4958 8.7002 10.3633 9.06543 10.3633C9.4235 10.3633 9.73503 10.4958 10 10.7607C10.2721 11.0186 10.4082 11.3229 10.4082 11.6738ZM29.8838 9.81543C29.8838 10.9469 29.7227 12.0104 29.4004 13.0059C29.0781 14.0013 28.5876 14.9323 27.9287 15.7988C27.2126 16.7441 26.4033 17.4531 25.501 17.9258C24.6058 18.3984 23.6068 18.6348 22.5039 18.6348C21.4154 18.6348 20.4199 18.3984 19.5176 17.9258C18.6224 17.4531 17.8167 16.7441 17.1006 15.7988C16.4489 14.9395 15.9619 14.0085 15.6396 13.0059C15.3174 12.0033 15.1562 10.9398 15.1562 9.81543C15.1562 8.69108 15.3138 7.63835 15.6289 6.65723C15.9512 5.67611 16.4274 4.77018 17.0576 3.93945C17.7523 3.02995 18.5472 2.34961 19.4424 1.89844C20.3376 1.4401 21.333 1.21094 22.4287 1.21094C23.5244 1.21094 24.5234 1.4401 25.4258 1.89844C26.3353 2.34961 27.1517 3.02637 27.875 3.92871C28.541 4.7666 29.0423 5.67611 29.3789 6.65723C29.7155 7.63835 29.8838 8.69108 29.8838 9.81543ZM27.5635 10.8252C27.5635 10.7321 27.5635 10.639 27.5635 10.5459C27.5635 10.4456 27.5599 10.3418 27.5527 10.2344L25.877 10.3633L25.6836 9.51465L27.4023 9.24609C27.3092 8.77344 27.1768 8.33301 27.0049 7.9248C26.833 7.50944 26.6217 7.1263 26.3711 6.77539L24.9424 8.4834L24.3193 7.97852L25.5762 5.89453C25.1608 5.53646 24.7025 5.27148 24.2012 5.09961C23.6999 4.92773 23.1449 4.84538 22.5361 4.85254L23.1914 7.43066L22.4287 7.69922L21.5156 5.07812C20.9785 5.27148 20.488 5.55794 20.0439 5.9375C19.5999 6.3099 19.1953 6.77181 18.8301 7.32324L20.5811 9.26758L19.9473 10.0088L18.3037 8.30078C18.0745 8.83789 17.9062 9.3571 17.7988 9.8584C17.6914 10.3597 17.6449 10.8395 17.6592 11.2979L17.6699 11.7061L19.5713 11.835V12.7803L17.7559 12.6729C17.806 13.0238 17.8883 13.3783 18.0029 13.7363C18.1247 14.0944 18.2751 14.4525 18.4541 14.8105L19.9258 13.4893L20.5273 14.0371L19.0234 15.627C19.3314 16.0208 19.668 16.3467 20.0332 16.6045C20.4056 16.8623 20.8102 17.0592 21.2471 17.1953L21.4941 15.0791L22.2568 15.1865L22.2031 17.3564H22.3213C22.7725 17.3564 23.2129 17.2884 23.6426 17.1523C24.0794 17.0091 24.5055 16.7871 24.9209 16.4863L23.6855 14.0908L24.416 13.6611L25.6836 15.7881C25.9486 15.4945 26.1813 15.1937 26.3818 14.8857C26.5824 14.5778 26.7507 14.2591 26.8867 13.9297L25.1035 12.3828L25.5762 11.9102L27.2412 12.8877C27.3486 12.5869 27.4274 12.2646 27.4775 11.9209C27.5348 11.5771 27.5635 11.2119 27.5635 10.8252ZM46.7061 10.0303C46.6702 11.2119 46.5234 12.2969 46.2656 13.2852C46.015 14.2663 45.6533 15.1507 45.1807 15.9385C44.6006 16.9053 43.8952 17.6322 43.0645 18.1191C42.2337 18.6061 41.2777 18.8496 40.1963 18.8496C39.0218 18.8496 37.9404 18.5954 36.9521 18.0869C35.9639 17.5785 35.0758 16.8158 34.2881 15.7988C33.5505 14.8535 32.9954 13.8438 32.623 12.7695C32.2578 11.6953 32.0752 10.5495 32.0752 9.33203C32.0752 8.16471 32.2363 7.07975 32.5586 6.07715C32.8809 5.07454 33.3786 4.16504 34.0518 3.34863C34.7679 2.47493 35.5915 1.81966 36.5225 1.38281C37.4535 0.938802 38.4919 0.716797 39.6377 0.716797C40.1963 0.716797 40.737 0.791992 41.2598 0.942383C41.7826 1.09277 42.2803 1.32194 42.7529 1.62988C43.2184 1.93066 43.6338 2.28158 43.999 2.68262C44.3643 3.08366 44.6758 3.53483 44.9336 4.03613L44.2031 4.21875C43.9668 3.9681 43.6803 3.7819 43.3438 3.66016C43.0072 3.53841 42.6097 3.47754 42.1514 3.47754C41.1989 3.47754 40.3145 3.74251 39.498 4.27246C38.6888 4.79525 37.9548 5.58301 37.2959 6.63574C36.7158 7.55957 36.279 8.50846 35.9854 9.48242C35.6989 10.4492 35.5557 11.4411 35.5557 12.458C35.5557 13.1956 35.6452 13.876 35.8242 14.499C36.0104 15.1149 36.2897 15.6663 36.6621 16.1533C37.0775 16.6976 37.568 17.1058 38.1338 17.3779C38.6995 17.6501 39.3405 17.7861 40.0566 17.7861C40.6224 17.7861 41.1309 17.6393 41.582 17.3457C42.0404 17.0449 42.445 16.5973 42.7959 16.0029C43.0752 15.5231 43.2972 15.0075 43.4619 14.4561C43.6266 13.8975 43.7269 13.3031 43.7627 12.6729L38.832 13.1133L38.5312 11.5449L43.1289 11.0723L39.208 10.1162L39.3262 8.38672L46.7061 10.0303ZM38.2305 3.70312C38.2305 3.45247 38.166 3.2627 38.0371 3.13379C37.9082 3.00488 37.7148 2.94043 37.457 2.94043C37.2064 2.94043 37.0166 3.00488 36.8877 3.13379C36.7588 3.2627 36.6943 3.45247 36.6943 3.70312C36.6943 3.90365 36.7695 4.08268 36.9199 4.24023C37.0703 4.39779 37.2493 4.47656 37.457 4.47656C37.7148 4.47656 37.9082 4.41211 38.0371 4.2832C38.166 4.1543 38.2305 3.96094 38.2305 3.70312ZM36.2539 5.31445C36.2539 5.04948 36.1572 4.82031 35.9639 4.62695C35.7705 4.42643 35.5378 4.32617 35.2656 4.32617C34.9935 4.32617 34.7607 4.42643 34.5674 4.62695C34.3812 4.82031 34.2881 5.04948 34.2881 5.31445C34.2881 5.58659 34.3812 5.82292 34.5674 6.02344C34.7607 6.2168 34.9935 6.31348 35.2656 6.31348C35.5378 6.31348 35.7705 6.2168 35.9639 6.02344C36.1572 5.82292 36.2539 5.58659 36.2539 5.31445ZM35.0186 7.87109C35.0186 7.61328 34.9541 7.41992 34.8252 7.29102C34.7035 7.16211 34.5137 7.09766 34.2559 7.09766C33.998 7.09766 33.8047 7.16211 33.6758 7.29102C33.5469 7.41992 33.4824 7.61328 33.4824 7.87109C33.4824 8.07161 33.5576 8.25065 33.708 8.4082C33.8656 8.56576 34.0482 8.64453 34.2559 8.64453C34.4635 8.64453 34.6426 8.56576 34.793 8.4082C34.9434 8.25065 35.0186 8.07161 35.0186 7.87109ZM63.3564 9.81543C63.3564 10.9469 63.1953 12.0104 62.873 13.0059C62.5508 14.0013 62.0602 14.9323 61.4014 15.7988C60.6852 16.7441 59.876 17.4531 58.9736 17.9258C58.0785 18.3984 57.0794 18.6348 55.9766 18.6348C54.888 18.6348 53.8926 18.3984 52.9902 17.9258C52.0951 17.4531 51.2894 16.7441 50.5732 15.7988C49.9215 14.9395 49.4346 14.0085 49.1123 13.0059C48.79 12.0033 48.6289 10.9398 48.6289 9.81543C48.6289 8.69108 48.7865 7.63835 49.1016 6.65723C49.4238 5.67611 49.9001 4.77018 50.5303 3.93945C51.2249 3.02995 52.0199 2.34961 52.915 1.89844C53.8102 1.4401 54.8057 1.21094 55.9014 1.21094C56.9971 1.21094 57.9961 1.4401 58.8984 1.89844C59.8079 2.34961 60.6243 3.02637 61.3477 3.92871C62.0137 4.7666 62.515 5.67611 62.8516 6.65723C63.1882 7.63835 63.3564 8.69108 63.3564 9.81543ZM61.0361 10.8252C61.0361 10.7321 61.0361 10.639 61.0361 10.5459C61.0361 10.4456 61.0326 10.3418 61.0254 10.2344L59.3496 10.3633L59.1562 9.51465L60.875 9.24609C60.7819 8.77344 60.6494 8.33301 60.4775 7.9248C60.3057 7.50944 60.0944 7.1263 59.8438 6.77539L58.415 8.4834L57.792 7.97852L59.0488 5.89453C58.6335 5.53646 58.1751 5.27148 57.6738 5.09961C57.1725 4.92773 56.6175 4.84538 56.0088 4.85254L56.6641 7.43066L55.9014 7.69922L54.9883 5.07812C54.4512 5.27148 53.9606 5.55794 53.5166 5.9375C53.0726 6.3099 52.668 6.77181 52.3027 7.32324L54.0537 9.26758L53.4199 10.0088L51.7764 8.30078C51.5472 8.83789 51.3789 9.3571 51.2715 9.8584C51.1641 10.3597 51.1175 10.8395 51.1318 11.2979L51.1426 11.7061L53.0439 11.835V12.7803L51.2285 12.6729C51.2786 13.0238 51.361 13.3783 51.4756 13.7363C51.5973 14.0944 51.7477 14.4525 51.9268 14.8105L53.3984 13.4893L54 14.0371L52.4961 15.627C52.804 16.0208 53.1406 16.3467 53.5059 16.6045C53.8783 16.8623 54.2829 17.0592 54.7197 17.1953L54.9668 15.0791L55.7295 15.1865L55.6758 17.3564H55.7939C56.2451 17.3564 56.6855 17.2884 57.1152 17.1523C57.5521 17.0091 57.9782 16.7871 58.3936 16.4863L57.1582 14.0908L57.8887 13.6611L59.1562 15.7881C59.4212 15.4945 59.654 15.1937 59.8545 14.8857C60.055 14.5778 60.2233 14.2591 60.3594 13.9297L58.5762 12.3828L59.0488 11.9102L60.7139 12.8877C60.8213 12.5869 60.9001 12.2646 60.9502 11.9209C61.0075 11.5771 61.0361 11.2119 61.0361 10.8252Z" fill="black"/>
</svg>
