<svg width="66" height="66" viewBox="0 0 66 66" fill="none" xmlns="http://www.w3.org/2000/svg">
<rect x="5" y="5" width="56" height="56" rx="28" fill="#F2E3CE"/>
<rect x="5" y="5" width="56" height="56" rx="28" stroke="#F7EEE2" stroke-width="10"/>
<path d="M37.0832 27.75L41.1665 23.6667M43.4998 21.3334L41.1665 23.6667L43.4998 21.3334ZM32.2882 32.545C32.8906 33.1394 33.3694 33.8471 33.6972 34.6273C34.025 35.4075 34.1952 36.2448 34.198 37.0911C34.2009 37.9374 34.0363 38.7758 33.7137 39.5582C33.3912 40.3406 32.9171 41.0515 32.3187 41.6499C31.7203 42.2483 31.0094 42.7224 30.227 43.0449C29.4446 43.3675 28.6062 43.5321 27.7599 43.5292C26.9136 43.5264 26.0763 43.3562 25.2961 43.0284C24.5159 42.7006 23.8082 42.2218 23.2138 41.6194C22.045 40.4092 21.3982 38.7883 21.4128 37.1059C21.4275 35.4235 22.1023 33.8141 23.292 32.6244C24.4817 31.4347 26.0911 30.7598 27.7735 30.7452C29.4559 30.7306 31.0768 31.3774 32.287 32.5462L32.2882 32.545ZM32.2882 32.545L37.0832 27.75L32.2882 32.545ZM37.0832 27.75L40.5832 31.25L44.6665 27.1667L41.1665 23.6667L37.0832 27.75Z" stroke="#275430" stroke-width="2.33333" stroke-linecap="round" stroke-linejoin="round"/>
</svg>
